<?xml version="1.0" standalone="no"?>
<!DOCTYPE svg PUBLIC "-//W3C//DTD SVG 20010904//EN"
 "http://www.w3.org/TR/2001/REC-SVG-20010904/DTD/svg10.dtd">
<svg version="1.0" xmlns="http://www.w3.org/2000/svg"
 width="1280.000000pt" height="1238.000000pt" viewBox="0 0 1280.000000 1238.000000"
 preserveAspectRatio="xMidYMid meet">
<g transform="translate(0.000000,1238.000000) scale(0.100000,-0.100000)"
fill="#000000" stroke="none">
<path d="M6406 12348 c-32 -31 -1944 -2297 -1993 -2362 -28 -37 -29 -50 -3
-76 19 -19 33 -20 463 -20 331 0 446 -3 455 -12 9 -9 12 -191 12 -759 0 -682
1 -748 17 -760 13 -12 197 -14 1105 -14 1067 0 1090 0 1104 19 12 17 14 138
14 768 0 411 1 749 3 750 1 1 211 5 466 8 422 5 465 7 475 22 7 11 7 25 1 42
-12 30 -2039 2402 -2066 2416 -15 9 -25 4 -53 -22z"/>
<path d="M1385 7280 c-649 -561 -1188 -1030 -1199 -1044 -11 -15 -16 -31 -12
-44 6 -19 552 -487 1999 -1717 392 -334 426 -357 456 -322 8 10 13 151 19 498
l7 484 752 5 c598 4 755 8 765 18 20 20 19 2062 -1 2085 -12 16 -78 17 -760
17 -568 0 -750 3 -759 12 -9 9 -12 136 -12 508 0 372 -3 499 -12 508 -7 7 -23
12 -37 12 -20 -1 -320 -255 -1206 -1020z"/>
<path d="M10159 8233 c-11 -13 -15 -110 -19 -497 l-5 -481 -744 -3 c-675 -2
-746 -4 -763 -19 -17 -15 -18 -62 -18 -1043 0 -981 1 -1028 18 -1043 17 -15
88 -17 768 -19 l749 -3 7 -489 c5 -344 11 -492 19 -502 26 -31 59 -14 187 93
128 108 1341 1134 1939 1641 177 151 325 281 328 291 3 10 3 26 -1 35 -5 13
-1340 1150 -2352 2003 -65 56 -91 64 -113 36z"/>
<path d="M5356 4494 c-14 -14 -16 -97 -16 -764 0 -588 -3 -751 -12 -757 -7 -4
-217 -10 -467 -13 -413 -5 -455 -7 -465 -22 -7 -11 -7 -25 -1 -42 16 -42 2037
-2394 2063 -2402 13 -4 32 -3 42 2 10 5 81 83 157 174 76 91 524 623 996 1184
472 560 863 1029 869 1041 7 16 7 29 -1 44 -12 21 -13 21 -461 21 -246 0 -455
3 -464 6 -14 6 -16 81 -16 753 0 659 -2 749 -16 769 l-15 22 -1089 0 c-976 0
-1090 -2 -1104 -16z"/>
</g>
</svg>
